<?xml version="1.0" standalone="no"?>
<!DOCTYPE svg PUBLIC "-//W3C//DTD SVG 20010904//EN"
 "http://www.w3.org/TR/2001/REC-SVG-20010904/DTD/svg10.dtd">
<svg version="1.0" xmlns="http://www.w3.org/2000/svg"
 width="700.000000pt" height="400.000000pt" viewBox="0 0 700.000000 400.000000"
 preserveAspectRatio="xMidYMid meet">

<g transform="translate(0.000000,400.000000) scale(0.100000,-0.100000)"
fill="#000000" stroke="none">
<path d="M2027 3393 c-2 -5 -3 -627 -3 -1383 l1 -1375 158 -3 157 -3 0 1386 0
1385 -154 0 c-85 0 -157 -3 -159 -7z"/>
<path d="M4811 2649 c-237 -29 -402 -122 -473 -267 l-33 -67 -3 -837 -3 -838
161 0 160 0 0 773 0 773 23 44 c25 51 94 103 160 121 23 7 96 15 161 18 l120
6 34 133 c20 72 33 134 31 136 -10 10 -270 14 -338 5z"/>
<path d="M830 2635 c-140 -29 -238 -77 -314 -152 -78 -78 -116 -180 -116 -310
l0 -73 160 0 159 0 6 38 c23 137 84 199 219 223 145 25 300 -8 368 -78 49 -50
58 -79 58 -179 0 -98 -13 -136 -63 -186 -39 -40 -72 -53 -427 -178 -245 -85
-305 -115 -364 -180 -85 -94 -116 -202 -116 -405 0 -156 16 -244 55 -311 57
-96 200 -188 347 -221 112 -26 407 -23 510 5 141 38 253 108 311 194 68 100
68 101 65 831 l-3 652 -23 50 c-73 159 -211 252 -420 284 -95 15 -332 12 -412
-4z m538 -1360 c-3 -204 -5 -223 -25 -261 -49 -91 -132 -127 -297 -126 -172 0
-245 32 -291 127 -23 47 -28 69 -28 138 -1 93 13 133 63 191 44 50 91 72 325
155 199 71 243 91 247 114 6 35 9 -145 6 -338z"/>
<path d="M5740 2635 c-176 -36 -326 -130 -384 -243 -25 -48 -46 -150 -46 -224
l0 -68 160 0 160 0 5 28 c39 186 107 236 320 237 133 0 198 -19 261 -77 54
-50 68 -92 68 -195 -1 -69 -5 -88 -28 -127 -46 -79 -31 -72 -453 -221 -285
-101 -330 -125 -396 -211 -77 -101 -101 -208 -94 -419 4 -122 9 -162 27 -214
45 -127 190 -236 370 -278 114 -26 408 -23 511 5 143 39 257 110 314 194 66
101 66 101 63 829 l-3 654 -32 68 c-64 134 -187 221 -366 258 -110 22 -355 25
-457 4z m548 -1282 c-4 -251 -6 -271 -27 -318 -49 -110 -122 -146 -296 -147
-219 -1 -301 53 -324 216 -23 159 47 273 201 330 24 8 122 44 218 78 107 38
182 70 195 84 11 12 24 22 29 23 5 1 7 -117 4 -266z"/>
<path d="M2670 1833 c0 -864 2 -888 54 -978 57 -96 193 -188 329 -220 34 -9
125 -18 202 -22 226 -9 377 19 501 93 83 50 130 99 167 174 l32 65 3 842 3
843 -155 0 -155 0 -3 -772 c-3 -719 -4 -776 -21 -813 -10 -22 -28 -50 -40 -63
-62 -67 -214 -104 -349 -85 -139 20 -218 80 -238 182 -6 33 -10 335 -10 802
l0 749 -160 0 -160 0 0 -797z"/>
</g>
</svg>
